<svg id="Layer_1" data-name="Layer 1" xmlns="http://www.w3.org/2000/svg" viewBox="0 0 297.46 330"><defs><style>.cls-1{fill:#96c332;}</style></defs><title>africa</title><path class="cls-1" d="M227.75,35.63S210.7,51.13,232.39,62c0,0,14,21.69,10.85,31l21.69,31s29.44,3.1,32.53,0v18.6l-48,44.92s-3.1,32.54,3.1,37.19v18.59l-9.3,10.84-13.94,9.3L230.85,282l-9.3,7.75-6.2,15.49S202.3,319.45,193,321l-24.13,9H154.93l-6.2-18.59-15.49-40.28-9.3-17s1.55-20.14,9.3-27.88V201.41s-24.79-17-15.49-34.09l-1.55-7.74-10.85-9.3L93,147.18H80.56l-12.39,6.2-15.49,3.1-17-4.65S0,122.39,0,117.75c0,0,6.2-43.38,0-46.48L34.08,35.63S41.83,9.3,69.72,10.85c0,0,46.48-6.2,52.67-10.85l3.1,13.94,4.65,9.3s18.59,4.65,26.34,9.3c0,0,10.84-1.55,7.75-10.85C164.23,21.69,218.45,37.18,227.75,35.63Z"/><path class="cls-1" d="M290,228s-16,14-23,19v22l-5,16h14l7-12,1-17,6-15Z"/></svg>