<svg id="Layer_1" data-name="Layer 1" xmlns="http://www.w3.org/2000/svg" viewBox="0 0 430.47 384"><defs><style>.cls-1{fill:#6fb75e;}</style></defs><title>donation</title><path class="cls-1" d="M81.52,252.64s0,31,10.32,51.6c0,0,0,17.19-20.64,6.88,0,0-13.76-51.6-10.32-55,0,0-61.91-37.83-55-103.18,0,0,3.44-92.87,86-147.9,0,0,61.91,44.71,65.35,137.58C157.19,142.58,164.07,207.93,81.52,252.64Z" transform="translate(-5.32 -5)"/><path class="cls-1" d="M112.47,314.56S64.32,359.27,60.88,373c0,0,0,27.51,20.64,10.32,0,0,24.08-37.84,37.83-48.16,0,0,61.91,55,117,44.72,0,0,103.18,13.75,199.49-127.27,0,0-61.91-86-189.18-86,0,0-92.86-3.44-130.7,89.42C115.91,256.08,109,304.24,112.47,314.56Z" transform="translate(-5.32 -5)"/></svg>