<?xml version="1.0" encoding="utf-8"?>
<!-- Generator: Adobe Illustrator 22.0.1, SVG Export Plug-In . SVG Version: 6.00 Build 0)  -->
<svg version="1.1" id="Capa_1" xmlns="http://www.w3.org/2000/svg" xmlns:xlink="http://www.w3.org/1999/xlink" x="0px" y="0px"
	 viewBox="0 0 491.9 380.3" style="enable-background:new 0 0 491.9 380.3;" xml:space="preserve">
<style type="text/css">
	.st0{fill:#FFFEFD;}
</style>
<g>
	<g>
		<g>
			<path class="st0" d="M377.5,169.8H201.3v58.7h107.5c-16,51-63.7,88.1-120.1,88.1c-69.5,0-125.8-56.3-125.8-125.8
				c0-69.5,56.3-125.8,125.8-125.8c35,0,66.6,14.3,89.5,37.3l42.6-46.3C286.8,22.6,240.2,2,188.7,2C84.5,2,0,86.5,0,190.7
				s84.5,188.7,188.7,188.7c91.3,0,171.2-64.8,188.7-151L377.5,169.8L377.5,169.8L377.5,169.8z"/>
			<polygon class="st0" points="491.9,169.7 455.8,169.7 455.8,133.6 424.9,133.6 424.9,169.7 388.9,169.7 388.9,200.5 424.9,200.5 
				424.9,236.6 455.8,236.6 455.8,200.5 491.9,200.5 			"/>
		</g>
	</g>
</g>
</svg>
