<svg id="Layer_1" data-name="Layer 1" xmlns="http://www.w3.org/2000/svg" viewBox="0 0 32.2 30.7"><defs><style>.cls-1{fill:#fff;}</style></defs><title>social-in</title><path id="LinkedIn" class="cls-1" d="M32.2,18.8V30.7H25.3V19.6c0-2.8-1-4.7-3.5-4.7a3.76,3.76,0,0,0-3.5,2.5,4.42,4.42,0,0,0-.2,1.7V30.7H11.2s.1-18.8,0-20.7H18v3h0v-.1a6.89,6.89,0,0,1,6.2-3.4C28.8,9.5,32.2,12.5,32.2,18.8ZM3.9,0C1.5,0,0,1.5,0,3.6A3.58,3.58,0,0,0,3.8,7.2h0A3.61,3.61,0,0,0,7.7,3.6,3.47,3.47,0,0,0,3.9,0ZM.4,30.7H7.3V10H.4Z"/></svg>