<svg id="Layer_1" data-name="Layer 1" xmlns="http://www.w3.org/2000/svg" viewBox="0 0 32.3 27.1"><defs><style>.cls-1{fill:#fff;}</style></defs><title>social-t</title><path class="cls-1" d="M32.3,3.2a16.57,16.57,0,0,1-3.8,1.1A6.57,6.57,0,0,0,31.4.5a12.81,12.81,0,0,1-4.2,1.7A6.23,6.23,0,0,0,22.4,0a6.7,6.7,0,0,0-6.6,6.8A8.75,8.75,0,0,0,16,8.4,18.92,18.92,0,0,1,2.3,1.3a6.65,6.65,0,0,0-.9,3.4,7,7,0,0,0,2.9,5.7,5.29,5.29,0,0,1-3-.9v.1a6.79,6.79,0,0,0,5.3,6.7,5,5,0,0,1-1.7.2,4.87,4.87,0,0,1-1.2-.1,6.54,6.54,0,0,0,6.2,4.7A13.21,13.21,0,0,1,1.7,24,9.58,9.58,0,0,1,0,24a18.6,18.6,0,0,0,10.2,3.1C22.4,27.1,29,16.6,29,7.6V6.7A12.28,12.28,0,0,0,32.3,3.2Z"/></svg>